<svg width="12" height="11" viewBox="0 0 12 11" fill="none" xmlns="http://www.w3.org/2000/svg">
<path d="M0 5.33418C0 5.15736 0.0702379 4.9878 0.195262 4.86277C0.320286 4.73775 0.489856 4.66751 0.666667 4.66751H9.724L6.19467 1.13951C6.13268 1.07753 6.08351 1.00394 6.04997 0.922953C6.01642 0.841967 5.99916 0.755167 5.99916 0.667509C5.99916 0.57985 6.01642 0.49305 6.04997 0.412064C6.08351 0.331078 6.13268 0.257493 6.19467 0.195509C6.25665 0.133525 6.33024 0.0843566 6.41122 0.0508111C6.49221 0.0172657 6.57901 -1.30621e-09 6.66667 0C6.75432 1.30621e-09 6.84113 0.0172657 6.92211 0.0508111C7.0031 0.0843566 7.07668 0.133525 7.13867 0.195509L11.8053 4.86218C11.8674 4.9241 11.9167 4.99767 11.9503 5.07866C11.9839 5.15966 12.0012 5.24649 12.0012 5.33418C12.0012 5.42186 11.9839 5.50869 11.9503 5.58969C11.9167 5.67068 11.8674 5.74425 11.8053 5.80618L7.13867 10.4728C7.01348 10.598 6.8437 10.6684 6.66667 10.6684C6.48963 10.6684 6.31985 10.598 6.19467 10.4728C6.06948 10.3477 5.99916 10.1779 5.99916 10.0008C5.99916 9.82381 6.06948 9.65402 6.19467 9.52884L9.724 6.00084H0.666667C0.489856 6.00084 0.320286 5.9306 0.195262 5.80558C0.0702379 5.68056 0 5.51099 0 5.33418Z" fill="#0E3256"/>
</svg>
