<svg width="32" height="32" viewBox="0 0 32 32" fill="none" xmlns="http://www.w3.org/2000/svg">
<path d="M20.894 22.308C18.8247 24.0506 16.2053 25.0043 13.5 25C7.149 25 2 19.851 2 13.5C2 7.149 7.149 2 13.5 2C19.851 2 25 7.149 25 13.5C25.0043 16.2053 24.0506 18.8247 22.308 20.894L28.708 27.293C28.8955 27.4806 29.0008 27.7351 29.0007 28.0004C29.0006 28.2656 28.8951 28.52 28.7075 28.7075C28.5199 28.895 28.2654 29.0003 28.0001 29.0002C27.7349 29.0001 27.4805 28.8946 27.293 28.707L20.894 22.308ZM23 13.5C23 10.9804 21.9991 8.56408 20.2175 6.78249C18.4359 5.00089 16.0196 4 13.5 4C10.9804 4 8.56408 5.00089 6.78249 6.78249C5.00089 8.56408 4 10.9804 4 13.5C4 16.0196 5.00089 18.4359 6.78249 20.2175C8.56408 21.9991 10.9804 23 13.5 23C16.0196 23 18.4359 21.9991 20.2175 20.2175C21.9991 18.4359 23 16.0196 23 13.5Z" fill="#0E3256"/>
</svg>
