<svg width="64" height="64" viewBox="0 0 64 64" fill="none" xmlns="http://www.w3.org/2000/svg">
<g filter="url(#filter0_d_1_10396)">
<circle cx="38" cy="26" r="16" fill="#0E3256"/>
<path d="M46.4421 18.1133C45.8266 18.1133 45.2248 18.2958 44.7129 18.6378C44.2011 18.9798 43.8022 19.4659 43.5666 20.0347C43.331 20.6034 43.2694 21.2292 43.3895 21.833C43.5096 22.4368 43.806 22.9913 44.2413 23.4266C44.6766 23.8619 45.2312 24.1584 45.8349 24.2785C46.4387 24.3986 47.0645 24.3369 47.6332 24.1013C48.202 23.8658 48.6881 23.4668 49.0301 22.955C49.3721 22.4431 49.5546 21.8414 49.5546 21.2258C49.5538 20.4006 49.2256 19.6094 48.642 19.0259C48.0585 18.4424 47.2674 18.1142 46.4421 18.1133ZM46.4421 23.8594C45.9213 23.8594 45.4121 23.705 44.979 23.4156C44.5459 23.1262 44.2083 22.7149 44.009 22.2336C43.8096 21.7524 43.7575 21.2229 43.8591 20.712C43.9607 20.2011 44.2116 19.7318 44.5799 19.3635C44.9482 18.9952 45.4175 18.7444 45.9283 18.6427C46.4392 18.5411 46.9688 18.5933 47.45 18.7926C47.9312 18.9919 48.3426 19.3295 48.6319 19.7626C48.9213 20.1957 49.0758 20.7049 49.0758 21.2258C49.075 21.924 48.7973 22.5934 48.3035 23.0872C47.8098 23.5809 47.1404 23.8586 46.4421 23.8594ZM47.1332 21.5912C47.3213 21.4905 47.4704 21.3298 47.5568 21.1346C47.6432 20.9395 47.6619 20.7211 47.61 20.5141C47.5582 20.3071 47.4386 20.1234 47.2704 19.992C47.1022 19.8607 46.895 19.7893 46.6816 19.7892H45.7239C45.6604 19.7892 45.5995 19.8145 45.5546 19.8594C45.5097 19.9043 45.4845 19.9652 45.4845 20.0287V22.4229C45.4845 22.4864 45.5097 22.5473 45.5546 22.5922C45.5995 22.6371 45.6604 22.6623 45.7239 22.6623C45.7874 22.6623 45.8483 22.6371 45.8932 22.5922C45.9381 22.5473 45.9633 22.4864 45.9633 22.4229V21.7046H46.6334L47.202 22.5558C47.2373 22.6086 47.2921 22.6453 47.3544 22.6578C47.4167 22.6702 47.4813 22.6574 47.5342 22.6222C47.5871 22.587 47.6238 22.5322 47.6362 22.4699C47.6487 22.4076 47.6359 22.3429 47.6007 22.29L47.1332 21.5912ZM45.9633 20.2681H46.6816C46.8086 20.2681 46.9304 20.3185 47.0202 20.4083C47.11 20.4981 47.1604 20.6199 47.1604 20.7469C47.1604 20.8739 47.11 20.9957 47.0202 21.0855C46.9304 21.1753 46.8086 21.2258 46.6816 21.2258H45.9633V20.2681Z" fill="white"/>
</g>
<path d="M33.17 24.5401C33.4697 24.5401 33.7132 24.6057 33.9005 24.7368C34.0878 24.8585 34.2236 25.0178 34.3079 25.2144C34.4016 25.4111 34.4484 25.6172 34.4484 25.8326C34.4484 26.1791 34.3454 26.4648 34.1393 26.6896C33.9426 26.905 33.6804 27.0127 33.3526 27.0127C33.0248 27.0127 32.7672 26.9331 32.5799 26.7739C32.402 26.6053 32.313 26.3852 32.313 26.1136C32.313 25.8513 32.3692 25.6359 32.4816 25.4673C32.6033 25.2894 32.7532 25.1395 32.9311 25.0178C32.8 24.9803 32.6689 24.985 32.5378 25.0318C32.3598 25.0599 32.1912 25.1348 32.032 25.2566C31.8728 25.369 31.737 25.5141 31.6246 25.6921C31.5122 25.8607 31.4232 26.048 31.3577 26.254C31.2921 26.4507 31.2593 26.6427 31.2593 26.83V30.553C31.2593 31.0025 31.367 31.3069 31.5824 31.4661C31.8072 31.6254 32.1397 31.705 32.5799 31.705V32C32.3645 31.9906 32.0507 31.9813 31.6386 31.9719C31.2265 31.9532 30.7957 31.9438 30.3461 31.9438C29.9715 31.9438 29.5922 31.9532 29.2082 31.9719C28.8242 31.9813 28.5339 31.9906 28.3372 32V31.705C28.665 31.705 28.8944 31.6347 29.0256 31.4942C29.166 31.3538 29.2363 31.0868 29.2363 30.6935V26.2681C29.2363 25.8466 29.1707 25.5376 29.0396 25.3409C28.9179 25.1348 28.6837 25.0318 28.3372 25.0318V24.7368C28.6369 24.7649 28.9272 24.7789 29.2082 24.7789C29.6016 24.7789 29.9668 24.7649 30.304 24.7368C30.6505 24.6993 30.969 24.6478 31.2593 24.5822V25.8888C31.3717 25.6359 31.5216 25.4064 31.7089 25.2004C31.8962 24.9943 32.1116 24.8351 32.3551 24.7227C32.5986 24.601 32.8702 24.5401 33.17 24.5401ZM37.3903 21.0139V25.8466C37.6244 25.3596 37.9382 25.0224 38.3316 24.8351C38.7343 24.6384 39.1839 24.5401 39.6802 24.5401C40.083 24.5401 40.4061 24.5916 40.6496 24.6946C40.8931 24.7883 41.0851 24.9194 41.2256 25.088C41.3848 25.266 41.4972 25.4954 41.5628 25.7764C41.6377 26.0574 41.6752 26.4367 41.6752 26.9143V30.6935C41.6752 31.0868 41.7407 31.3538 41.8719 31.4942C42.0123 31.6347 42.2465 31.705 42.5743 31.705V32C42.3963 31.9906 42.1247 31.9813 41.7595 31.9719C41.4036 31.9532 41.057 31.9438 40.7199 31.9438C40.3546 31.9438 39.9987 31.9532 39.6521 31.9719C39.315 31.9813 39.0621 31.9906 38.8935 32V31.705C39.1745 31.705 39.3712 31.6347 39.4836 31.4942C39.596 31.3538 39.6521 31.0868 39.6521 30.6935V26.3243C39.6521 26.0901 39.6287 25.8888 39.5819 25.7202C39.5351 25.5422 39.4461 25.4064 39.315 25.3128C39.1932 25.2098 39.0153 25.1582 38.7811 25.1582C38.5282 25.1582 38.2941 25.2285 38.0787 25.369C37.8726 25.5001 37.704 25.6874 37.5729 25.9309C37.4512 26.1744 37.3903 26.4554 37.3903 26.7739V30.6935C37.3903 31.0868 37.4465 31.3538 37.5589 31.4942C37.6713 31.6347 37.868 31.705 38.1489 31.705V32C37.9803 31.9906 37.7321 31.9813 37.4043 31.9719C37.0765 31.9532 36.744 31.9438 36.4069 31.9438C36.0416 31.9438 35.6717 31.9532 35.297 31.9719C34.9318 31.9813 34.6555 31.9906 34.4681 32V31.705C34.796 31.705 35.0254 31.6347 35.1565 31.4942C35.297 31.3538 35.3673 31.0868 35.3673 30.6935V22.6997C35.3673 22.2782 35.3017 21.9692 35.1706 21.7725C35.0488 21.5664 34.8147 21.4634 34.4681 21.4634V21.1684C34.7679 21.1965 35.0582 21.2105 35.3392 21.2105C35.7232 21.2105 36.0884 21.1965 36.435 21.1684C36.7815 21.1309 37.1 21.0794 37.3903 21.0139Z" fill="white"/>
<path d="M44.6451 30.0332C45.0103 30.0332 45.3007 30.1315 45.5161 30.3282C45.7315 30.5155 45.8392 30.7778 45.8392 31.1149C45.8392 31.4521 45.7315 31.719 45.5161 31.9157C45.3007 32.103 45.0103 32.1967 44.6451 32.1967C44.2798 32.1967 43.9895 32.103 43.774 31.9157C43.5586 31.719 43.4509 31.4521 43.4509 31.1149C43.4509 30.7778 43.5586 30.5155 43.774 30.3282C43.9895 30.1315 44.2798 30.0332 44.6451 30.0332Z" fill="#EB7171"/>
<defs>
<filter id="filter0_d_1_10396" x="0" y="0" width="64" height="64" filterUnits="userSpaceOnUse" color-interpolation-filters="sRGB">
<feFlood flood-opacity="0" result="BackgroundImageFix"/>
<feColorMatrix in="SourceAlpha" type="matrix" values="0 0 0 0 0 0 0 0 0 0 0 0 0 0 0 0 0 0 127 0" result="hardAlpha"/>
<feOffset dx="-6" dy="6"/>
<feGaussianBlur stdDeviation="8"/>
<feComposite in2="hardAlpha" operator="out"/>
<feColorMatrix type="matrix" values="0 0 0 0 0 0 0 0 0 0 0 0 0 0 0 0 0 0 0.2 0"/>
<feBlend mode="normal" in2="BackgroundImageFix" result="effect1_dropShadow_1_10396"/>
<feBlend mode="normal" in="SourceGraphic" in2="effect1_dropShadow_1_10396" result="shape"/>
</filter>
</defs>
</svg>
