<svg width="32" height="32" viewBox="0 0 32 32" fill="none" xmlns="http://www.w3.org/2000/svg">
<path d="M19.6663 8.66699C19.6663 6.64206 18.0251 5.00018 16.0002 5C13.9752 5 12.3333 6.64195 12.3333 8.66699C12.3334 10.6919 13.9753 12.333 16.0002 12.333C18.025 12.3328 19.6661 10.6918 19.6663 8.66699ZM21.6663 8.66699C21.6661 11.7963 19.1296 14.3328 16.0002 14.333C12.8707 14.333 10.3334 11.7965 10.3333 8.66699C10.3333 5.53738 12.8706 3 16.0002 3C19.1297 3.00018 21.6663 5.53749 21.6663 8.66699Z" fill="#0E3256"/>
<path d="M24.3336 22.0833C24.3336 21.1555 23.6538 20.1115 22.109 19.2425C20.5956 18.3913 18.4374 17.8333 15.9996 17.8333C13.5618 17.8334 11.4035 18.3913 9.89023 19.2425C8.34562 20.1114 7.6666 21.1556 7.6666 22.0833C7.6666 23.6196 7.72034 24.4137 8.46445 25.0199C8.87515 25.3543 9.57624 25.6925 10.8023 25.9408C12.024 26.1881 13.7008 26.3333 15.9996 26.3333C18.2983 26.3333 19.9752 26.188 21.1969 25.9408C22.423 25.6926 23.124 25.3543 23.5348 25.0199C24.2792 24.4136 24.3336 23.6198 24.3336 22.0833ZM26.3336 22.0833C26.3336 23.446 26.387 25.2767 24.7984 26.5706C24.0425 27.1862 22.9931 27.6176 21.5943 27.9007C20.1911 28.1848 18.3673 28.3333 15.9996 28.3333C13.6321 28.3333 11.809 28.1847 10.4059 27.9007C9.00704 27.6176 7.95771 27.1863 7.20175 26.5706C5.61298 25.2766 5.6666 23.446 5.6666 22.0833C5.6666 20.112 7.07654 18.5306 8.90976 17.4993C10.7744 16.4505 13.2833 15.8334 15.9996 15.8333C18.7159 15.8333 21.2248 16.4505 23.0894 17.4993C24.9228 18.5306 26.3336 20.112 26.3336 22.0833Z" fill="#0E3256"/>
</svg>
